<?xml version="1.0" standalone="no"?>
<!DOCTYPE svg PUBLIC "-//W3C//DTD SVG 1.1//EN" "http://www.w3.org/Graphics/SVG/1.1/DTD/svg11.dtd" >
<svg xmlns="http://www.w3.org/2000/svg">
<metadata></metadata>
<defs>
<font id="blair_itcregular" horiz-adv-x="1024" >
<font-face units-per-em="2048" ascent="1638" descent="-410" />
<missing-glyph horiz-adv-x="552" />
<glyph horiz-adv-x="2048" />
<glyph horiz-adv-x="2048" />
<glyph horiz-adv-x="682" />
<glyph d="M236 1579h112q12 -102 162 -102t162 102h112q-10 -94 -84.5 -151.5t-189.5 -57.5q-113 0 -187.5 56.5t-86.5 152.5z" />
<glyph d="M408 1503q0 43 30.5 73t71.5 30t71.5 -31t30.5 -72t-29.5 -70.5t-72.5 -29.5t-72.5 29.5t-29.5 70.5z" />
<glyph d="M307 1532q0 33 15.5 62.5t42 51t64.5 35t81 13.5t81 -13.5t64.5 -35t42 -51t15.5 -62.5t-15.5 -62.5t-42 -51t-64.5 -35t-81 -13.5t-81 13.5t-64.5 35t-42 51t-15.5 62.5zM387 1532q0 -41 33 -67.5t90 -26.5q59 0 92 27.5t33 66.5q0 41 -34 68.5t-91 27.5 q-55 0 -89 -27.5t-34 -68.5z" />
<glyph unicode="&#xa;" d="M330 1370l90 285h162l-185 -285h-67zM602 1370l90 285h162l-184 -285h-68z" />
<glyph d="M223 -238q0 82 61.5 145.5t184.5 117.5h94q-193 -104 -192 -248q0 -68 37.5 -108t101.5 -40q37 0 96 21l15 -45q-86 -29 -166 -29q-113 0 -172.5 49t-59.5 137z" />
<glyph d="M168 1653h135l201 -215l198 215h136l-252 -285h-156z" />
<glyph unicode="&#xd;" horiz-adv-x="552" />
<glyph horiz-adv-x="548" d="M-434 -20l1255 1503h162l-1253 -1503h-164z" />
<glyph horiz-adv-x="2050" d="M229 0v1260h1196v-130h-1063v-399h740v-129h-740v-602h-133zM1686 0v1260h133v-1260h-133z" />
<glyph horiz-adv-x="2803" d="M229 0v1260h1196v-130h-1063v-399h740v-129h-740v-602h-133zM1686 0v1260h133v-1131h974v-129h-1107z" />
<glyph horiz-adv-x="1546" d="M158 438v150l100 67v828h133v-740l498 334v-149l-498 -334v-465h1145v-129h-1278v506z" />
<glyph horiz-adv-x="1347" d="M123 311v150l106 71v728h133v-637l361 243v-149l-361 -244v-344h975v-129h-1108v383z" />
<glyph horiz-adv-x="1624" d="M55 0v129l1241 1225h-1224v129h1425v-129l-1270 -1225h1325v-129h-1497zM455 1880h135l201 -215l198 215h136l-252 -285h-156z" />
<glyph horiz-adv-x="1355" d="M31 0v129l1040 1001h-1026v130h1233v-130l-1065 -1001h1112v-129h-1294zM334 1653h135l201 -215l198 215h136l-252 -285h-156z" />
<glyph unicode=" "  horiz-adv-x="552" />
<glyph unicode="&#x09;" horiz-adv-x="552" />
<glyph unicode="&#xa0;" horiz-adv-x="552" />
<glyph unicode="!" horiz-adv-x="655" d="M205 0v129h246v-129h-246zM236 1421v62h186v-60l-31 -1128h-125z" />
<glyph unicode="&#x22;" horiz-adv-x="569" d="M98 881v553h101v-553h-101zM371 881v553h102v-553h-102z" />
<glyph unicode="#" horiz-adv-x="1867" d="M381 629v102h215l55 363h-198v102h213l45 287h102l-43 -287h408l45 287h100l-41 -287h182v-102h-196l-56 -363h187v-102h-203l-55 -391h-107l60 391h-406l-59 -391h-107l60 391h-201zM700 731h408l55 363h-407z" />
<glyph unicode="$" horiz-adv-x="1867" d="M219 197l62 98q260 -178 581 -201v625q-317 0 -469.5 84t-152.5 264q0 197 156.5 306.5t465.5 119.5v78h121v-80q184 -10 324.5 -45t244.5 -100l-79 -99q-231 123 -490 129v-549q340 -4 503 -99t163 -304q0 -211 -167 -324.5t-499 -119.5v-115h-121v117 q-211 14 -369.5 65t-273.5 150zM375 1081q0 -131 119.5 -188t367.5 -57v544q-487 -10 -487 -299zM983 90q262 8 396 94t134 228q0 297 -530 303v-625z" />
<glyph unicode="%" horiz-adv-x="2207" d="M201 1110q0 168 106 281q117 123 273 122q156 0 272 -122q111 -115 111 -281q0 -80 -29 -152.5t-82 -128.5q-115 -119 -272 -118q-78 0 -148 29.5t-125 88.5q-53 53 -79.5 126t-26.5 155zM313 1110q0 -63 21.5 -117.5t57.5 -94.5t84 -63.5t104 -23.5q55 0 103 23.5 t85 63.5t58.5 95.5t21.5 116.5q0 63 -21.5 117.5t-58.5 95.5t-86 64.5t-102 23.5t-101.5 -23.5t-85.5 -64.5t-58.5 -95t-21.5 -118zM395 -20l1256 1503h161l-1253 -1503h-164zM1245 373q0 168 107 280q117 123 272 123q158 0 274 -123q109 -112 109 -280q0 -80 -28.5 -151.5 t-82.5 -127.5q-117 -121 -272 -121q-158 0 -272 121q-106 111 -107 279zM1358 373q0 -63 21.5 -117.5t57.5 -94.5t84 -63.5t103 -23.5t103.5 23.5t85 63.5t58 95.5t21.5 116.5q0 63 -21.5 117.5t-58 95.5t-86 64.5t-102.5 23.5t-101 -23.5t-85 -64.5t-58.5 -95.5 t-21.5 -117.5z" />
<glyph unicode="&#x26;" horiz-adv-x="1988" d="M190 393q0 166 139.5 282t415.5 175q-115 170 -114 295q0 76 27.5 141.5t77.5 113.5t119 74.5t149 26.5t145 -25.5t113.5 -70.5t74 -108.5t25.5 -139.5q0 -143 -108.5 -241.5t-319.5 -139.5q162 -246 385 -446q80 57 142.5 155.5t119.5 235.5h135q-129 -324 -309 -471 q178 -106 391 -123v-129q-262 25 -483 166q-123 -94 -273.5 -142.5t-314.5 -48.5q-123 0 -221 32t-169 89.5t-109 133t-38 165.5zM338 393q0 -133 111.5 -215t306.5 -82q115 0 230.5 39t240.5 117q-236 229 -412 493q-236 -41 -356.5 -132t-120.5 -220zM762 1137 q0 -124 106 -263q180 18 272.5 94t92.5 189q0 98 -62.5 159.5t-164.5 61.5q-111 0 -177.5 -66.5t-66.5 -174.5z" />
<glyph unicode="'" horiz-adv-x="294" d="M98 881v553h101v-553h-101z" />
<glyph unicode="(" horiz-adv-x="907" d="M250 664q0 113 13 220t36 201.5t53.5 174t67.5 139.5q66 111 145.5 166t188.5 59v-70q-72 -4 -122 -44t-93 -117q-66 -119 -112 -306.5t-46 -422.5q0 -205 36 -379t85 -283t107.5 -163t144.5 -58v-70q-111 4 -191 58.5t-145 164.5q-72 119 -120 308.5t-48 421.5z" />
<glyph unicode=")" horiz-adv-x="907" d="M154 -219q86 6 143 59.5t106 161.5q49 111 86 284t37 378q0 236 -46 424t-111 305q-43 78 -93.5 116.5t-121.5 44.5v70q109 -4 188.5 -59.5t144.5 -165.5q72 -121 121 -313.5t49 -421.5t-49 -420t-121 -310q-66 -111 -144.5 -165t-188.5 -58v70z" />
<glyph unicode="*" horiz-adv-x="1269" d="M221 1126l39 121l346 -133l-41 369h125l-18 -371l338 152l39 -119l-351 -86l252 -283l-100 -74l-205 316l-192 -328l-103 74l238 291z" />
<glyph unicode="+" horiz-adv-x="688" d="M104 1038v109q115 47 205 113h131v-1260h-133v1130z" />
<glyph unicode="," horiz-adv-x="655" d="M205 0v129h246v-190q0 -90 -47.5 -129t-151.5 -39h-33v61q127 10 127 105v63h-141z" />
<glyph unicode="-" horiz-adv-x="894" d="M123 598v129h649v-129h-649z" />
<glyph unicode="." horiz-adv-x="655" d="M205 0v129h246v-129h-246z" />
<glyph unicode="/" horiz-adv-x="1034" d="M-4 -20l881 1503h161l-878 -1503h-164z" />
<glyph unicode="0" horiz-adv-x="1812" d="M182 741q0 193 82 356t232 273q92 66 195.5 99.5t213.5 33.5q111 0 214.5 -33.5t195.5 -99.5q152 -111 233.5 -275t81.5 -354q0 -193 -83 -356.5t-234 -273.5q-92 -66 -193.5 -101t-214.5 -35q-111 0 -214 35t-195 101q-150 111 -232 274.5t-82 355.5zM317 741 q0 -160 66 -296t188 -230q145 -115 334 -115q92 0 178 30t158 85q123 94 188.5 230t65.5 296t-66.5 295t-189.5 228q-150 113 -334 112q-184 0 -334 -112q-123 -92 -188.5 -228.5t-65.5 -294.5z" />
<glyph unicode="1" horiz-adv-x="700" d="M82 1249v103q61 25 120.5 57.5t116.5 73.5h134v-1483h-134v1358z" />
<glyph unicode="2" horiz-adv-x="1605" d="M84 0q16 238 129 393q45 61 98.5 106.5t114.5 81t132 64.5t149 57q123 43 236.5 74t205.5 84q139 80 139 219q0 133 -126 216t-353 83q-154 0 -290 -50t-271 -154l-80 98q156 117 312.5 174t330.5 57q143 0 258 -31.5t197 -88t126 -133t44 -169.5q0 -158 -96.5 -250 t-301.5 -155q-123 -37 -238.5 -71t-219.5 -83q-137 -66 -221.5 -159t-125.5 -234h1244v-129h-1393z" />
<glyph unicode="3" horiz-adv-x="1642" d="M63 242l82 104q115 -131 258.5 -186.5t339.5 -55.5q584 0 584 322q0 145 -163 212t-496 67h-76v116q31 -2 61.5 -2h59.5q276 0 411.5 68.5t135.5 216.5q0 129 -118 201.5t-339 72.5q-150 0 -285 -42t-268 -132l-78 99q158 100 311.5 150t313.5 50q297 0 457.5 -105.5 t160.5 -285.5q0 -252 -301 -340q180 -33 272.5 -127t92.5 -235q0 -211 -185.5 -323t-548.5 -112q-111 0 -207 14.5t-179 45.5t-156.5 82t-139.5 125z" />
<glyph unicode="4" horiz-adv-x="1599" d="M61 311v131l1002 1041h133v-1043h342v-129h-342v-311h-133v311h-1002zM190 440h873v889z" />
<glyph unicode="5" horiz-adv-x="1636" d="M90 229l125 68q141 -98 282.5 -146.5t301.5 -48.5q125 0 224 27t168 75t104.5 112.5t35.5 140.5q0 80 -38 145.5t-108.5 113.5t-172 74.5t-228.5 26.5q-147 0 -280 -43t-266 -131l-138 113l215 727h1055v-129h-964l-164 -559q131 76 265 111.5t288 35.5q156 0 281.5 -38 t214.5 -103.5t138.5 -154.5t49.5 -191q0 -106 -45 -194.5t-130 -152t-207 -98.5t-276 -35q-479 0 -731 254z" />
<glyph unicode="6" horiz-adv-x="1785" d="M162 735q0 248 135 436q113 160 286 246t378 86q166 0 307 -56t250 -165l-101 -84q-80 88 -203.5 134t-287.5 46q-139 0 -253 -46t-196 -131t-126 -207t-44 -271q1 -71 15 -141q117 154 281.5 233.5t357.5 79.5q154 0 283.5 -45t225.5 -125q139 -115 140 -289 q0 -100 -44 -185t-129 -146.5t-206 -95.5t-275 -34q-174 0 -318 54.5t-251 158.5q-109 104 -167 245.5t-58 301.5zM369 436q174 -332 596 -332q233 0 361 90.5t128 243.5q0 72 -35 132.5t-99.5 104.5t-156.5 68.5t-207 24.5q-182 0 -338.5 -87t-248.5 -245z" />
<glyph unicode="7" horiz-adv-x="1492" d="M49 1354v129h1374v-129l-940 -1354h-164l947 1354h-1217z" />
<glyph unicode="8" horiz-adv-x="1732" d="M131 381q0 150 114.5 249t344.5 136q-174 31 -265.5 122t-91.5 220q0 180 163 287.5t462 107.5q150 0 266.5 -28.5t196.5 -80t122 -125t42 -161.5q0 -129 -89.5 -216t-265.5 -126q229 -39 344 -136.5t115 -246.5q0 -190 -185 -299t-544 -109q-358 0 -543.5 107.5 t-185.5 298.5zM279 399q0 -135 149.5 -216t429.5 -81q283 0 427.5 78t144.5 213q0 145 -144.5 224t-427.5 79q-287 0 -433 -78.5t-146 -218.5zM375 1108q0 -133 125 -211t360 -78q238 0 363 77t125 212q0 129 -124 199.5t-366 70.5q-238 0 -360.5 -70.5t-122.5 -199.5z" />
<glyph unicode="9" horiz-adv-x="1779" d="M145 1030q0 102 45.5 189.5t129 150t204.5 97t273 34.5q184 0 333.5 -56t255 -155.5t163 -239t57.5 -305.5q0 -211 -101 -383q-51 -88 -125.5 -159.5t-166 -121.5t-195 -78t-211.5 -28q-172 0 -317.5 58.5t-258.5 171.5l82 92q98 -94 225.5 -144.5t270.5 -50.5 q104 0 199.5 28t175.5 83q129 88 200.5 225t71.5 297q0 43 -5 85t-17 89q-117 -156 -291 -239.5t-371 -83.5q-133 0 -247.5 31.5t-198.5 90t-132.5 140.5t-48.5 182zM289 1040q0 -74 33.5 -135t96 -104t151.5 -67.5t198 -24.5q199 0 361 89t260 255q-59 92 -122 153.5 t-134.5 100.5t-158.5 55t-194 16q-240 0 -365.5 -89t-125.5 -249z" />
<glyph unicode=":" horiz-adv-x="655" d="M205 0v129h246v-129h-246zM205 840v129h246v-129h-246z" />
<glyph unicode=";" horiz-adv-x="655" d="M205 0v129h246v-190q0 -90 -47.5 -129t-151.5 -39h-33v61q127 10 127 105v63h-141zM205 840v129h246v-129h-246z" />
<glyph unicode="&#x3c;" horiz-adv-x="1402" d="M80 0q8 123 45 219t105.5 170t170 129t238.5 96q111 33 197 60.5t144 59.5t89 74t31 105q0 106 -101.5 173t-283.5 67q-137 0 -255 -41t-231 -131l-82 94q135 102 271.5 151.5t290.5 49.5q125 0 225 -26.5t170 -75t107.5 -117t37.5 -150.5q0 -121 -78 -202 q-66 -68 -157.5 -100t-208.5 -64q-98 -29 -184 -55.5t-154 -67.5q-86 -53 -140.5 -122t-84.5 -167h1042v-129h-1204z" />
<glyph unicode="=" horiz-adv-x="1396" d="M10 211l78 94q111 -104 234.5 -150t279.5 -46q485 0 485 258q0 231 -579 231h-45v113q31 -2 58.5 -2h56.5q229 0 340.5 53t111.5 170q0 104 -96 162.5t-281 58.5q-129 0 -244.5 -36t-232.5 -109l-74 94q139 88 272.5 132t272.5 44q256 0 396.5 -90t140.5 -238 q0 -209 -236 -291q141 -35 215 -115.5t74 -201.5q0 -170 -161 -266t-472 -96q-381 0 -594 231z" />
<glyph unicode="&#x3e;" horiz-adv-x="1359" d="M39 260v125l858 875h127v-871h291v-129h-291v-260h-133v260h-852zM182 389h709v709z" />
<glyph unicode="?" horiz-adv-x="1400" d="M80 1251q223 254 625 254q141 0 251.5 -29.5t186.5 -84t115.5 -132t39.5 -174.5q0 -80 -23.5 -134t-70.5 -94t-116.5 -69.5t-159.5 -58.5q-57 -18 -106.5 -34.5t-86.5 -49.5q-47 -41 -68.5 -116.5t-21.5 -186.5v-47h-137l2 82q2 98 21.5 173t58.5 130t99.5 95t144.5 69 q68 23 123 38t92 38q51 33 74.5 72.5t23.5 101.5q0 131 -118 206.5t-339 75.5q-150 0 -271.5 -49t-232.5 -153zM467 0v129h246v-129h-246z" />
<glyph unicode="@" horiz-adv-x="1667" d="M145 655q0 102 32 200.5t91 184.5q102 145 256 226.5t328 81.5q133 0 252 -43t211 -121q207 -172 207 -434q0 -143 -72 -263q-59 -98 -153.5 -152t-204.5 -54q-68 0 -109 25.5t-68 86.5q-92 -72 -200 -71q-100 0 -160.5 67.5t-60.5 183.5q0 92 29.5 171t81.5 137.5 t123 92.5t153 34q63 0 123 -37l16 37h131q-66 -211 -100.5 -342t-34.5 -185q0 -117 98 -116q121 0 192.5 99t71.5 279q0 111 -37.5 202t-107.5 156.5t-167 102.5t-214 37q-125 0 -228.5 -42t-177 -118.5t-113.5 -185.5t-40 -240q0 -565 573 -567v-106h-57q-150 0 -271.5 48 t-208.5 137t-135.5 213t-48.5 275zM623 545q0 -131 104 -131q45 0 87 27.5t75 77.5t52.5 117.5t19.5 147.5q0 150 -109 150q-43 0 -84 -28.5t-72.5 -81t-52 -123t-20.5 -156.5z" />
<glyph unicode="A" horiz-adv-x="1781" d="M10 0l785 1483h196l781 -1483h-154l-203 385h-1044l-207 -385h-154zM438 514h910l-445 840h-18z" />
<glyph unicode="B" horiz-adv-x="2060" d="M258 0v1483h1153q207 0 319.5 -102.5t112.5 -276.5q0 -129 -62.5 -212t-195.5 -132q154 -49 228.5 -138.5t74.5 -230.5q0 -90 -31.5 -161.5t-92 -123t-147.5 -79t-196 -27.5h-1163zM391 129h1028q162 0 246 68.5t84 201.5t-87 211t-239 78h-1032v-559zM391 817h1012 q63 0 118.5 21.5t94.5 58.5t61.5 89t22.5 114q0 113 -72 183.5t-194 70.5h-1043v-537z" />
<glyph unicode="C" horiz-adv-x="1992" d="M172 745q0 356 274 582q119 98 277 150.5t340 52.5q254 0 449.5 -85t318.5 -245l-119 -47q-125 131 -283.5 191.5t-365.5 60.5q-147 0 -279.5 -43t-230.5 -121q-240 -190 -240 -496q0 -147 54.5 -268t152.5 -208t236.5 -135t306.5 -48q219 0 379 58.5t270 187.5l111 -72 q-111 -145 -298.5 -223t-443.5 -78q-287 0 -508 117q-195 102 -298 274t-103 395z" />
<glyph unicode="D" horiz-adv-x="2097" d="M258 0v1483h883q182 0 327.5 -53.5t247 -151.5t155.5 -238.5t54 -314.5q0 -154 -53 -286t-158 -234q-102 -100 -236.5 -152.5t-287.5 -52.5h-932zM391 129h809q248 0 414 178q76 84 117 192.5t41 231.5q0 139 -44.5 254t-124 197t-192.5 127t-250 45h-770v-1225z" />
<glyph unicode="E" horiz-adv-x="1783" d="M258 0v1483h1382v-129h-1249v-504h869v-129h-869v-592h1307v-129h-1440z" />
<glyph unicode="F" horiz-adv-x="1671" d="M258 0v1483h1382v-129h-1249v-504h869v-129h-869v-721h-133z" />
<glyph unicode="G" horiz-adv-x="2125" d="M172 743q0 352 272 578q119 98 279 153.5t342 55.5q238 0 420 -76t325 -235l-122 -78q-137 141 -285 202.5t-338 61.5q-154 0 -287 -45t-233 -129q-229 -193 -230 -488q0 -147 53.5 -268t151.5 -208t236.5 -135t308.5 -48q291 0 476 134t251 390h-786v129h948 q-10 -147 -46 -259.5t-106 -201.5q-123 -154 -311 -236.5t-426 -82.5q-186 0 -346 53t-277 152q-270 223 -270 581z" />
<glyph unicode="H" horiz-adv-x="2080" d="M258 0v1483h133v-633h1299v633h133v-1483h-133v721h-1299v-721h-133z" />
<glyph unicode="I" horiz-adv-x="649" d="M258 0v1483h133v-1483h-133z" />
<glyph unicode="J" horiz-adv-x="1503" d="M72 440h125q2 -190 108.5 -273t335.5 -83q129 0 222 19.5t153.5 64.5t89.5 115.5t29 175.5v1024h133v-1022q0 -250 -155 -377t-462 -127q-287 0 -433 124t-146 359z" />
<glyph unicode="K" horiz-adv-x="1804" d="M258 0v1483h133v-873l1112 873h195l-699 -545l791 -938h-160l-731 858l-508 -399v-459h-133z" />
<glyph unicode="L" horiz-adv-x="1546" d="M258 0v1483h133v-1354h1145v-129h-1278z" />
<glyph unicode="M" horiz-adv-x="2441" d="M258 0v1483h207l756 -989l757 989h205v-1483h-133v1354h-8l-821 -1057l-824 1057h-6v-1354h-133z" />
<glyph unicode="N" horiz-adv-x="2088" d="M258 0v1483h193l1247 -1354v1354h133v-1483h-189l-1251 1354v-1354h-133z" />
<glyph unicode="O" horiz-adv-x="2131" d="M172 743q0 354 277 582q119 98 277.5 151.5t340.5 53.5q180 0 339 -53.5t277 -151.5q277 -228 277 -582q0 -358 -274 -583q-117 -96 -275 -149.5t-344 -53.5t-345 53t-276 150q-274 225 -274 583zM317 743q0 -147 53.5 -269t152 -209t236.5 -134t308 -47t308 48 t236.5 134t153 208t54.5 269q0 303 -242 496q-98 78 -230.5 122t-279.5 44t-279.5 -44t-230.5 -122q-240 -190 -240 -496z" />
<glyph unicode="P" horiz-adv-x="1869" d="M258 0v1483h1118q102 0 185.5 -31t141.5 -88t89 -139t31 -185q0 -98 -33 -178t-95.5 -136t-151.5 -87t-202 -31h-950v-608h-133zM391 737h975q147 0 228 81t81 229q0 307 -358 307h-926v-617z" />
<glyph unicode="Q" horiz-adv-x="2152" d="M182 745q0 354 275 580q119 98 277.5 152.5t342.5 54.5q182 0 341 -54.5t278 -152.5q274 -227 274 -580q0 -240 -119.5 -419t-353.5 -283l199 -219l-129 -39l-187 217q-154 -43 -303 -43q-186 0 -346 53.5t-276 151.5q-272 223 -273 581zM328 745q0 -147 53 -268 t151.5 -207t236.5 -134t308 -48q53 0 104.5 5t102.5 16l-190 219l120 37l191 -222q211 84 317.5 236.5t106.5 365.5q0 147 -57.5 270.5t-172.5 217.5q-100 82 -234 128t-288 46t-287 -45t-233 -129q-229 -188 -229 -488z" />
<glyph unicode="R" horiz-adv-x="2002" d="M258 0v1483h1118q102 0 185.5 -31t141.5 -89t89 -140t31 -183q0 -193 -115 -304t-332 -128l451 -608h-162l-465 608h-809v-608h-133zM391 737h975q147 0 228 81t81 229q0 307 -358 307h-926v-617z" />
<glyph unicode="S" horiz-adv-x="1906" d="M164 184l78 113q166 -106 339 -156.5t369 -50.5q311 0 474 92t163 252q0 80 -37 132t-111.5 85t-188 50.5t-265.5 23.5q-186 8 -327.5 19.5t-243.5 50.5q-111 41 -164 113.5t-53 183.5q0 201 183 314.5t533 113.5q231 0 409.5 -41t309.5 -129l-94 -103 q-143 78 -293.5 113t-322.5 35q-281 0 -425.5 -76t-144.5 -211q0 -72 36 -118t106.5 -74.5t176 -43t247.5 -20.5q195 -8 346 -20.5t262 -59.5q217 -94 217 -330q0 -225 -194.5 -351t-569.5 -126q-252 0 -456 55.5t-359 163.5z" />
<glyph unicode="T" horiz-adv-x="1570" d="M10 1354v129h1551v-129h-709v-1354h-133v1354h-709z" />
<glyph unicode="U" horiz-adv-x="2080" d="M258 463v1020h133v-969q0 -428 651 -428q647 0 648 428v969h133v-1020q0 -111 -54.5 -204t-155 -159.5t-245.5 -104.5t-326 -38q-182 0 -326.5 38t-246.5 105.5t-156.5 159.5t-54.5 203z" />
<glyph unicode="V" horiz-adv-x="1701" d="M10 1483h156l686 -1374l684 1374h156l-740 -1483h-202z" />
<glyph unicode="W" horiz-adv-x="2224" d="M37 1483h151l422 -1368l389 1368h207l408 -1366l422 1366h151l-477 -1483h-203l-405 1366l-385 -1366h-205z" />
<glyph unicode="X" horiz-adv-x="1685" d="M51 0l707 752l-680 731h176l588 -637l592 637h174l-678 -731l704 -752h-174l-618 662l-615 -662h-176z" />
<glyph unicode="Y" horiz-adv-x="1624" d="M10 1483h162l639 -754l641 754h162l-733 -887v-596h-133v596z" />
<glyph unicode="Z" horiz-adv-x="1624" d="M55 0v129l1241 1225h-1224v129h1425v-129l-1270 -1225h1325v-129h-1497z" />
<glyph unicode="[" horiz-adv-x="761" d="M205 -289v1913h467v-70h-334v-1773h334v-70h-467z" />
<glyph unicode="\" horiz-adv-x="1034" d="M-4 1483h162l880 -1503h-164z" />
<glyph unicode="]" horiz-adv-x="772" d="M92 -219h334v1773h-334v70h465v-1913h-465v70z" />
<glyph unicode="^" horiz-adv-x="1413" d="M80 205l110 69q125 -86 250 -127t260 -41q104 0 186.5 22t138.5 60.5t87 91t31 113.5q0 63 -32 117.5t-92.5 94.5t-144 62.5t-188.5 22.5q-129 0 -244.5 -37t-232.5 -112l-117 98l189 621h913v-130h-829l-146 -456q98 63 220 97t261 34q133 0 242 -32t185.5 -87 t117.5 -132t41 -165q0 -92 -39 -167t-112.5 -129t-179 -83.5t-238.5 -29.5q-412 0 -637 225z" />
<glyph unicode="_" d="M0 -383h1024v-100h-1024v100z" />
<glyph unicode="`" d="M297 1653h162l119 -285h-68z" />
<glyph unicode="a" horiz-adv-x="1552" d="M10 0l678 1260h178l676 -1260h-156l-172 322h-874l-176 -322h-154zM408 451h739l-367 682h-4z" />
<glyph unicode="b" horiz-adv-x="1806" d="M229 0v1260h992q180 0 278 -89.5t98 -238.5q0 -98 -45 -167t-143 -118q117 -51 172 -126t55 -183q0 -78 -28.5 -139.5t-80.5 -106.5t-128 -68.5t-170 -23.5h-1000zM362 129h865q133 0 201.5 55.5t68.5 159.5t-70.5 166.5t-195.5 62.5h-869v-444zM362 702h850 q51 0 96.5 17.5t78 48.5t51 72t18.5 90q0 88 -58.5 144t-158.5 56h-877v-428z" />
<glyph unicode="c" horiz-adv-x="1714" d="M143 635q0 301 236 491q102 82 238.5 128t293.5 46q217 0 388 -74.5t282 -215.5l-121 -47q-190 213 -549 213q-141 0 -255.5 -42t-197.5 -116t-128 -175.5t-45 -221.5q0 -113 45 -209.5t128 -167t198.5 -111.5t254.5 -41q184 0 318.5 50.5t230.5 158.5l113 -70 q-106 -135 -269 -199.5t-393 -64.5q-160 0 -297 45t-237 127q-233 190 -234 496z" />
<glyph unicode="d" horiz-adv-x="1820" d="M229 0v1260h760q158 0 284 -45.5t213 -128t134 -202.5t47 -268q0 -129 -46 -242.5t-136 -199.5q-88 -86 -203 -130t-250 -44h-803zM362 129h678q123 0 229.5 57.5t166.5 153.5q41 63 60.5 135t19.5 148q0 115 -37 208t-103.5 159.5t-160 103t-207.5 36.5h-646v-1001z" />
<glyph unicode="e" horiz-adv-x="1556" d="M229 0v1260h1196v-130h-1063v-399h740v-129h-740v-473h1113v-129h-1246z" />
<glyph unicode="f" horiz-adv-x="1456" d="M229 0v1260h1196v-130h-1063v-399h740v-129h-740v-602h-133z" />
<glyph unicode="g" horiz-adv-x="1822" d="M143 633q0 303 238 493q102 84 239.5 130.5t292.5 46.5q205 0 362 -66t288 -209l-123 -76q-104 109 -230.5 166.5t-296.5 57.5q-139 0 -253.5 -42t-197.5 -116t-129 -176.5t-46 -223.5q0 -113 45 -209t128 -166.5t197.5 -110.5t255.5 -40q240 0 394.5 107.5t210.5 310.5 h-666v129h827q-6 -156 -62 -281t-156.5 -213t-240 -135t-307.5 -47q-160 0 -296 46t-238 128q-236 193 -236 496z" />
<glyph unicode="h" horiz-adv-x="1810" d="M229 0v1260h133v-529h1086v529h133v-1260h-133v602h-1086v-602h-133z" />
<glyph unicode="i" horiz-adv-x="593" d="M229 0v1260h133v-1260h-133z" />
<glyph unicode="j" horiz-adv-x="1280" d="M41 399h127q2 -160 89 -230.5t278 -70.5q215 0 313 69t98 239v854h133v-852q0 -213 -134 -323t-402 -110q-248 0 -375 107.5t-127 316.5z" />
<glyph unicode="k" horiz-adv-x="1583" d="M229 0v1260h133v-719l932 719h199l-608 -467l680 -793h-164l-619 715l-420 -326v-389h-133z" />
<glyph unicode="l" horiz-adv-x="1347" d="M229 0v1260h133v-1131h975v-129h-1108z" />
<glyph unicode="m" horiz-adv-x="2115" d="M229 0v1260h187l643 -820l639 820h188v-1260h-133v1122h-4l-690 -880l-692 891h-5v-1133h-133z" />
<glyph unicode="n" horiz-adv-x="1816" d="M229 0v1260h168l1057 -1133v1133h133v-1260h-168l-1057 1133v-1133h-133z" />
<glyph unicode="o" horiz-adv-x="1828" d="M143 633q0 303 238 493q102 84 239.5 130.5t292.5 46.5q156 0 293 -46.5t240 -130.5q240 -192 240 -493q0 -305 -236 -498q-102 -82 -239.5 -127t-297.5 -45t-296 46t-238 128q-236 193 -236 496zM287 616q0 -113 45 -209t127 -165.5t197.5 -109.5t256.5 -40t258 40 t199 110.5t127 167t45 211.5q0 119 -46 221t-129 176t-198.5 116t-255.5 42q-139 0 -254.5 -42t-198.5 -117t-128 -177.5t-45 -223.5z" />
<glyph unicode="p" horiz-adv-x="1619" d="M229 0v1260h961q180 0 285.5 -102.5t105.5 -276.5q0 -170 -111.5 -271.5t-308.5 -101.5h-799v-508h-133zM362 637h820q121 0 186.5 64.5t65.5 183.5q0 245 -291 245h-2h-779v-493z" />
<glyph unicode="q" horiz-adv-x="1849" d="M214 907.5q60 124.5 177 220.5q102 84 239.5 130.5t293.5 46.5t293 -46.5t241 -130.5q238 -195 238 -495q0 -199 -100.5 -349.5t-297.5 -242.5l160 -176l-125 -39l-157 172q-119 -33 -252 -33q-160 0 -297.5 45t-237.5 127q-235 192 -235 493q0 153 60 277.5zM297 618 q0 -115 45 -211t127 -165.5t197.5 -109.5t257.5 -40q43 0 83 3t78 14l-163 182l122 35l164 -185q168 66 256 192t88 288q0 129 -42 224t-152 191q-70 53 -178.5 97.5t-255.5 44.5q-139 0 -255 -42t-199 -117t-128 -177.5t-45 -223.5z" />
<glyph unicode="r" horiz-adv-x="1740" d="M229 0v1260h961q180 0 285.5 -102.5t105.5 -276.5q0 -158 -94 -255.5t-275 -115.5l381 -510h-161l-398 508h-672v-508h-133zM362 637h820q121 0 186.5 64.5t65.5 183.5q0 245 -291 245h-2h-779v-493z" />
<glyph unicode="s" horiz-adv-x="1642" d="M137 164l76 108q147 -92 301 -134t334 -42q244 0 374 74t130 197q0 70 -32 113.5t-95.5 70.5t-158.5 39t-224 18q-170 6 -296 20.5t-209 48.5t-125 93t-42 156q0 174 158.5 271t459.5 97q375 0 619 -149l-78 -101q-127 66 -259 95.5t-284 29.5q-229 0 -345.5 -56 t-116.5 -163q0 -61 30.5 -101t94 -63.5t160 -35t225.5 -15.5q170 -6 296.5 -24.5t209.5 -57.5t124 -104.5t41 -169.5q0 -193 -168 -300.5t-491 -107.5q-436 0 -709 193z" />
<glyph unicode="t" horiz-adv-x="1357" d="M10 1130v130h1338v-130h-603v-1130h-133v1130h-602z" />
<glyph unicode="u" horiz-adv-x="1779" d="M215 412v848h133v-805q0 -348 545 -349q539 0 539 349v805h133v-848q0 -94 -46 -174t-133.5 -137.5t-212 -89t-280.5 -31.5q-158 0 -283 32.5t-213 90t-135 136t-47 173.5z" />
<glyph unicode="v" horiz-adv-x="1482" d="M10 1260h152l579 -1141l580 1141h152l-639 -1260h-185z" />
<glyph unicode="w" horiz-adv-x="1937" d="M41 1260h152l350 -1141l323 1141h189l342 -1139l350 1139h149l-411 -1260h-187l-337 1139l-320 -1139h-188z" />
<glyph unicode="x" horiz-adv-x="1413" d="M10 0l611 639l-588 621h178l496 -527l497 527h176l-585 -621l608 -639h-176l-520 549l-519 -549h-178z" />
<glyph unicode="y" horiz-adv-x="1427" d="M10 1260h164l539 -625l538 625h166l-635 -754v-506h-133v506z" />
<glyph unicode="z" horiz-adv-x="1355" d="M31 0v129l1040 1001h-1026v130h1233v-130l-1065 -1001h1112v-129h-1294z" />
<glyph unicode="{" horiz-adv-x="778" d="M102 668q84 43 122 108.5t38 163.5v397q0 150 84 218.5t262 68.5h17v-70q-119 0 -174.5 -58t-55.5 -181v-248q0 -168 -23.5 -263t-107.5 -132v-6q84 -37 107.5 -132.5t23.5 -263.5v-260q0 -119 53.5 -174t169.5 -55h7v-70h-9q-186 0 -270 60.5t-84 212.5v413 q0 96 -38 162t-122 109z" />
<glyph unicode="|" horiz-adv-x="1548" d="M154 621q0 217 116 376q98 135 250 208t334 73q131 0 247 -48t230 -149l-102 -84q-86 82 -179.5 119t-209.5 37q-127 0 -229.5 -38t-174 -106.5t-110.5 -164.5t-39 -213q0 -60 12 -115q100 121 238.5 183.5t304.5 62.5q123 0 225 -28.5t175 -79t113 -119t40 -146.5 q0 -90 -39 -164.5t-112 -129t-175 -85t-229 -30.5q-158 0 -284 47t-216 131t-138 202.5t-48 260.5zM340 375q86 -147 206 -208t300 -61q193 0 297 74t104 197q0 57 -28.5 107.5t-82 86t-128 56t-168.5 20.5q-150 0 -282 -71.5t-218 -200.5z" />
<glyph unicode="}" horiz-adv-x="761" d="M141 -219h6q117 0 170.5 55t53.5 174v260q0 166 22.5 261.5t108.5 134.5v6q-86 39 -108.5 134t-22.5 261v248q0 123 -56.5 181t-173.5 58v70h17q178 0 262 -69.5t84 -217.5v-397q0 -98 38 -163.5t122 -108.5q-84 -43 -122 -107.5t-38 -163.5v-413q0 -150 -84 -211.5 t-270 -61.5h-9v70z" />
<glyph unicode="~" horiz-adv-x="1335" d="M57 1130v130h1188v-130l-803 -1130h-163l802 1130h-1024z" />
<glyph unicode="&#xa1;" horiz-adv-x="655" d="M205 1354v129h246v-129h-246zM236 0v59l30 1129h125l31 -1127v-61h-186z" />
<glyph unicode="&#xa2;" horiz-adv-x="1447" d="M158 737q0 104 36.5 193.5t106.5 157t172 112.5t232 60v198h120v-198q279 -18 465 -230l-98 -37q-152 152 -367 164v-844q217 8 369 164l88 -57q-182 -201 -457 -207v-213h-120v213q-262 29 -404.5 169t-142.5 355zM270 737q0 -174 112 -285.5t323 -136.5v842 q-209 -27 -322 -140.5t-113 -279.5z" />
<glyph unicode="&#xa3;" horiz-adv-x="1437" d="M86 725v98h195q-41 133 -41 230q0 106 38.5 191t112.5 145.5t180.5 93.5t241.5 33q291 0 473 -164l-61 -95q-98 78 -201.5 111t-232.5 33q-418 0 -418 -344q0 -92 41 -234h526v-98h-502q25 -117 25 -186q0 -123 -44 -225.5t-124 -168.5q125 31 227 31q86 0 163 -10 t146.5 -22.5t130 -22.5t113.5 -10q94 0 187 45l59 -115q-115 -51 -211 -51q-63 0 -129 11t-135.5 23.5t-143 23.5t-149.5 11q-184 0 -354 -88l-86 146q117 111 173 216t56 216q0 66 -29 176h-227z" />
<glyph unicode="&#xa4;" horiz-adv-x="1581" d="M164 631q0 131 46 245.5t132 204.5q94 98 208 147.5t241 49.5t240.5 -48t205.5 -147q86 -90 132 -205.5t46 -246.5q0 -162 -71.5 -302.5t-200.5 -234.5q-156 -115 -352 -114q-197 0 -355 114q-129 94 -200.5 234.5t-71.5 302.5zM301 631q0 -131 55.5 -243t155.5 -189 q125 -94 279 -95q156 0 278 95q102 78 156.5 189.5t54.5 242.5q0 104 -36 196.5t-101 163.5q-74 78 -164 119t-188 41t-188.5 -41t-164.5 -119q-137 -143 -137 -360z" />
<glyph unicode="&#xa5;" horiz-adv-x="1712" d="M49 1483h162l639 -754l641 754h162l-617 -748h244v-100h-328l-32 -39v-190h360v-101h-360v-305h-134v305h-362v101h362v190l-30 39h-332v100h248z" />
<glyph unicode="&#xa6;" d="M459 -350v758h108v-758h-108zM459 674v758h108v-758h-108z" />
<glyph unicode="&#xa7;" horiz-adv-x="1708" d="M129 70l78 112q154 -98 312.5 -144t340.5 -46q254 0 390 81t136 210q0 80 -38.5 127t-115.5 73.5t-191.5 36.5t-266.5 19q-156 8 -270.5 24.5t-190 52t-113.5 95t-38 151.5q0 133 102 236q-55 45 -78.5 96t-23.5 121q0 180 162.5 281.5t474.5 101.5q201 0 356.5 -39 t278.5 -129l-84 -94q-133 72 -269.5 105.5t-287.5 33.5q-240 0 -362 -63.5t-122 -180.5q0 -111 113 -162q41 -18 93 -28.5t114.5 -15.5t135.5 -8t157 -7q156 -8 271.5 -28.5t191 -61.5t113.5 -107.5t38 -164.5q0 -86 -28.5 -143.5t-53.5 -88.5q43 -49 62.5 -102.5 t19.5 -118.5q0 -201 -174 -312.5t-506 -111.5q-223 0 -405.5 50t-321.5 149zM309 885q0 -96 73 -144.5t226 -68.5q80 -10 167 -11.5t179.5 -5.5t187.5 -17t191 -46q53 66 53 143q0 211 -350 246q-78 8 -157.5 10t-159.5 5t-161 11.5t-161 28.5q-88 -63 -88 -151z" />
<glyph unicode="&#xa8;" d="M242 1509q0 41 30.5 72t71.5 31t70.5 -30t29.5 -73q0 -41 -29.5 -70.5t-70.5 -29.5q-43 0 -72.5 29.5t-29.5 70.5zM578 1509q0 43 29.5 73t70.5 30t71.5 -31t30.5 -72t-29.5 -70.5t-72.5 -29.5q-41 0 -70.5 28.5t-29.5 71.5z" />
<glyph unicode="&#xa9;" horiz-adv-x="1705" d="M119 725q0 150 55 282t164 240q213 213 514 213q154 0 287 -55t237 -160q104 -104 157.5 -235t53.5 -285q0 -305 -211 -516q-109 -109 -243 -164t-281 -55q-299 0 -516 217t-217 518zM207 725q0 -129 48 -244.5t142 -210.5q190 -190 455 -190q133 0 250 48t213 144 q186 187 186 453q0 131 -48 249t-140 210q-188 188 -461 188q-266 0 -453 -186q-94 -94 -143 -212t-49 -249zM465 721q0 106 28.5 191t80 143.5t124 90.5t162.5 32q264 0 334 -267h-129q-55 164 -201 164q-123 0 -189.5 -89t-66.5 -263q0 -166 68.5 -255t187.5 -89 q156 0 211 182h129q-70 -287 -354 -287q-176 0 -280.5 118t-104.5 329z" />
<glyph unicode="&#xaa;" d="M-10 633l459 852h129l456 -852h-125l-114 211h-564l-116 -211h-125zM287 950h452l-225 420z" />
<glyph unicode="&#xab;" horiz-adv-x="1064" d="M121 657l297 334h151l-282 -334l278 -331h-155zM494 657l297 334h151l-283 -334l279 -331h-156z" />
<glyph unicode="&#xac;" horiz-adv-x="1495" d="M106 338q0 225 338 315q-123 35 -186 110t-63 173q0 76 36.5 139.5t106.5 108.5t170 69.5t227 24.5q129 0 229.5 -24.5t170 -69.5t106.5 -108.5t37 -139.5q0 -193 -248 -283q166 -39 252 -121.5t86 -193.5q0 -172 -159.5 -265t-471.5 -93q-311 0 -471 93t-160 265z M254 338q0 -102 125 -167t358 -65t353 61.5t120 170.5q0 117 -119.5 183.5t-353.5 66.5q-238 0 -360.5 -66.5t-122.5 -183.5zM336 936q0 -106 103.5 -170t297.5 -64q197 0 300.5 62.5t103.5 171.5q0 102 -101.5 159.5t-300.5 57.5t-301 -58.5t-102 -158.5z" />
<glyph unicode="&#xad;" horiz-adv-x="1705" d="M254 561v98h1198v-98h-1198z" />
<glyph unicode="&#xae;" horiz-adv-x="776" d="M72 1176q0 61 24.5 117.5t67.5 99.5t100.5 67.5t122.5 24.5q68 0 126 -24.5t100 -66.5t67 -99.5t25 -125.5q0 -66 -25 -123t-69 -100t-103 -67.5t-127 -24.5q-63 0 -119.5 24.5t-98.5 67.5t-66.5 102.5t-24.5 127.5zM121 1169q0 -57 20.5 -106t57.5 -86t85 -57.5 t103 -20.5q57 0 106.5 20.5t86 57.5t57 86t20.5 106q0 55 -20.5 104.5t-56 85.5t-86 56.5t-107.5 20.5q-55 0 -104.5 -20.5t-85 -56.5t-56 -84t-20.5 -106zM264 997v342h121q145 0 145 -100q0 -63 -73 -90l75 -152h-81l-66 142h-49v-142h-72zM336 1186h49q68 0 68 49t-72 49 h-45v-98z" />
<glyph unicode="&#xaf;" d="M193 1448v96h649v-96h-649z" />
<glyph unicode="&#xb0;" horiz-adv-x="1124" d="M193 1145q0 143 112 250q109 102 258 102q150 0 258 -102q113 -109 113 -250t-113 -250q-53 -49 -118.5 -75.5t-139.5 -26.5t-140.5 26.5t-117.5 75.5q-113 106 -112 250zM313 1145q0 -53 19.5 -98.5t53.5 -80t80 -54t97 -19.5t96.5 19.5t79 54t53 80t19.5 98.5t-20.5 99 t-54.5 81t-79 55.5t-94 20.5q-51 0 -96 -20.5t-79 -55.5t-54.5 -81t-20.5 -99z" />
<glyph unicode="&#xb1;" horiz-adv-x="1705" d="M254 51v99h1198v-99h-1198zM254 723v98h551v348h98v-348h549v-98h-549v-348h-98v348h-551z" />
<glyph unicode="&#xb2;" horiz-adv-x="1058" d="M55 592q8 139 86 235q59 74 140 113t186 74q80 27 155.5 44t135.5 50q92 49 92 131q0 80 -83 130t-232 50q-102 0 -192.5 -29.5t-178.5 -93.5l-53 60q104 70 206.5 103.5t217.5 33.5q190 0 301.5 -70.5t111.5 -181.5q0 -94 -63.5 -149.5t-198.5 -94.5q-82 -23 -157.5 -43 t-145.5 -49q-92 -39 -146.5 -95t-82.5 -140h821v-78h-920z" />
<glyph unicode="&#xb3;" horiz-adv-x="1083" d="M41 737l55 62q76 -78 171 -111t225 -33q385 0 385 193q0 86 -107.5 126t-329.5 40h-49v71q20 -2 40 -2h40q360 0 360 170q0 78 -77.5 122t-223.5 44q-197 0 -364 -104l-53 59q207 119 413 119q195 0 301.5 -62.5t106.5 -170.5q0 -150 -199 -205q119 -18 180.5 -74.5 t61.5 -142.5q0 -127 -123 -193.5t-362 -66.5q-147 0 -255 34.5t-196 124.5z" />
<glyph unicode="&#xb4;" d="M440 1368l117 285h164l-213 -285h-68z" />
<glyph unicode="&#xb5;" horiz-adv-x="1110" d="M-111 -426l316 1491h139l-125 -592q-8 -35 -12 -69.5t-4 -69.5q0 -117 57 -180.5t168 -63.5q123 0 213 104.5t135 313.5l121 557h139l-164 -770q-10 -47 -16 -80t-6 -53q0 -66 68 -66h12t24 2l-20 -110q-23 -6 -45.5 -8.5t-40.5 -2.5q-137 0 -137 146v14 q-41 -78 -119 -120t-180 -42q-92 0 -161 40t-108 116l-114 -557h-140z" />
<glyph unicode="&#xb6;" horiz-adv-x="1857" d="M184 1059q0 88 35 166t98.5 135t151.5 90t195 33h901v-1821h-133v954h-316v-954h-133v954h-293q-115 0 -208 33t-159.5 91.5t-102.5 140.5t-36 178zM326 1051q0 -137 96 -221.5t258 -84.5h303v609h-289q-369 0 -368 -303zM1116 745h316v609h-316v-609z" />
<glyph unicode="&#xb7;" horiz-adv-x="655" d="M195 598v129h245v-129h-245z" />
<glyph unicode="&#xb8;" d="M313 -391l17 41q49 -16 86 -17q59 0 91 26t32 73q0 27 -19.5 46t-44.5 19q-33 0 -53 -28l-60 10l107 239h90l-51 -122h12q162 0 162 -152q0 -78 -53.5 -123t-147.5 -45q-88 0 -168 33z" />
<glyph unicode="&#xb9;" horiz-adv-x="462" d="M53 1341v62q41 16 81 34.5t77 43.5h88v-889h-88v815z" />
<glyph unicode="&#xba;" horiz-adv-x="1177" d="M84 1038q0 96 37 178t103.5 142.5t158.5 94.5t205 34q111 0 204 -34t160.5 -93.5t104.5 -139t37 -171.5q0 -94 -37 -174t-103.5 -138.5t-160 -92.5t-205.5 -34q-111 0 -204 33t-159.5 91.5t-103.5 136t-37 167.5zM199 1038q0 -70 27.5 -129t78.5 -103t123 -68.5 t160 -24.5t160.5 24.5t124 68.5t79 103t27.5 131q0 74 -28.5 137.5t-80 109.5t-124 71.5t-158.5 25.5t-158 -25.5t-123 -71.5t-79.5 -109.5t-28.5 -139.5z" />
<glyph unicode="&#xbb;" horiz-adv-x="1052" d="M100 991h152l297 -334l-289 -331h-156l279 331zM473 991h152l297 -334l-289 -331h-156l279 331z" />
<glyph unicode="&#xbc;" horiz-adv-x="1996" d="M6 -20l1256 1503h161l-1253 -1503h-164zM51 1352v57q39 14 77 31.5t73 40.5h84v-830h-84v760zM1028 174v74l631 581h84v-583h215v-72h-215v-174h-84v174h-631zM1110 246h549v497z" />
<glyph unicode="&#xbd;" horiz-adv-x="2000" d="M6 -20l1256 1503h161l-1253 -1503h-164zM51 1352v57q39 14 77 31.5t73 40.5h84v-830h-84v760zM1042 0q8 131 82 221q55 68 133 103.5t177 68.5q78 25 149.5 42.5t128.5 45.5q88 45 88 123q0 74 -80 121t-221 47q-188 0 -354 -115l-49 56q98 66 195.5 97.5t207.5 31.5 q182 0 288.5 -66.5t106.5 -169.5q0 -88 -61 -140t-191 -87q-78 -23 -150.5 -40t-137.5 -46q-86 -37 -138.5 -90t-78.5 -131h782v-72h-877z" />
<glyph unicode="&#xbe;" horiz-adv-x="2590" d="M41 786l51 60q72 -74 163 -104.5t214 -30.5q367 0 367 178q0 158 -416 158h-47v65q20 -2 38.5 -2h37.5q344 0 344 160q0 72 -74 112.5t-213 40.5q-186 0 -348 -98l-49 55q195 113 393 113q186 0 287.5 -58.5t101.5 -160.5q-1 -142 -189 -191q113 -18 171.5 -70t58.5 -132 q0 -117 -117 -180.5t-346 -63.5q-141 0 -242.5 32.5t-185.5 116.5zM600 -20l1255 1503h162l-1253 -1503h-164zM1622 174v74l631 581h84v-583h215v-72h-215v-174h-84v174h-631zM1704 246h549v497z" />
<glyph unicode="&#xbf;" horiz-adv-x="1400" d="M102 397q0 80 24 134.5t71 93.5t115.5 68.5t158.5 58.5q59 20 108.5 36.5t86.5 49.5q49 43 69.5 120.5t20.5 194.5v35h137l-2 -82q-4 -98 -23.5 -173t-58.5 -131.5t-99.5 -95t-144.5 -67.5q-70 -23 -124 -38t-89 -38q-53 -33 -75.5 -72.5t-22.5 -101.5q0 -131 116.5 -207 t340.5 -76q150 0 271.5 49.5t231.5 153.5l107 -78q-219 -254 -625 -254q-141 0 -251.5 30t-186.5 84t-116 132t-40 174zM688 1354v129h246v-129h-246z" />
<glyph unicode="&#xc0;" horiz-adv-x="1781" d="M10 0l785 1483h196l781 -1483h-154l-203 385h-1044l-207 -385h-154zM438 514h910l-445 840h-18zM676 1880h162l119 -285h-68z" />
<glyph unicode="&#xc1;" horiz-adv-x="1781" d="M10 0l785 1483h196l781 -1483h-154l-203 385h-1044l-207 -385h-154zM438 514h910l-445 840h-18zM819 1595l117 285h164l-213 -285h-68z" />
<glyph unicode="&#xc2;" horiz-adv-x="1781" d="M10 0l785 1483h196l781 -1483h-154l-203 385h-1044l-207 -385h-154zM438 514h910l-445 840h-18zM551 1597l262 285h156l252 -285h-135l-199 215l-201 -215h-135z" />
<glyph unicode="&#xc3;" horiz-adv-x="1781" d="M10 0l785 1483h196l781 -1483h-154l-203 385h-1044l-207 -385h-154zM438 514h910l-445 840h-18zM563 1675q51 66 92 98.5t86 32.5q35 0 69 -12.5t66.5 -26.5t65.5 -26.5t64 -12.5q41 0 64.5 20.5t49.5 63.5l70 -47q-80 -135 -182 -135q-37 0 -73 12t-68.5 25.5t-62.5 26 t-54 12.5q-68 0 -119 -82z" />
<glyph unicode="&#xc4;" horiz-adv-x="1781" d="M10 0l785 1483h196l781 -1483h-154l-203 385h-1044l-207 -385h-154zM438 514h910l-445 840h-18zM621 1736q0 41 30.5 72t71.5 31t70.5 -30t29.5 -73q0 -41 -29.5 -70.5t-70.5 -29.5q-43 0 -72.5 29.5t-29.5 70.5zM957 1736q0 43 29.5 73t70.5 30t71.5 -31t30.5 -72 t-29.5 -70.5t-72.5 -29.5q-41 0 -70.5 28.5t-29.5 71.5z" />
<glyph unicode="&#xc5;" horiz-adv-x="1945" d="M92 0l785 1483h196l780 -1483h-153l-203 385h-1044l-207 -385h-154zM520 514h910l-445 840h-18zM770 1737q0 33 15.5 62.5t42 51t64.5 34.5t81 13t81 -13t64.5 -34.5t42 -51t15.5 -62.5t-15.5 -62.5t-42 -51t-64.5 -35t-81 -13.5t-81 13.5t-64.5 35t-42 51t-15.5 62.5z M850 1737q0 -41 32.5 -68t90.5 -27q59 0 92 28t33 67t-34 67.5t-91 28.5q-55 0 -89 -27.5t-34 -68.5z" />
<glyph unicode="&#xc6;" horiz-adv-x="2650" d="M10 0l1012 1483h1485v-129h-1250v-504h869v-129h-869v-592h1307v-129h-1440v385h-702l-264 -385h-148zM510 514h614v840h-43z" />
<glyph unicode="&#xc7;" horiz-adv-x="1992" d="M172 745q0 356 274 582q119 98 277 150.5t340 52.5q250 0 444.5 -84t323.5 -246l-119 -47q-127 133 -284.5 192.5t-364.5 59.5q-147 0 -279.5 -43t-230.5 -121q-240 -190 -240 -496q0 -147 54.5 -268t152.5 -208t236.5 -135t306.5 -48q217 0 374.5 58.5t274.5 187.5 l111 -72q-227 -301 -756 -301l-27 -63h13q162 0 161 -152q0 -78 -53 -123t-147 -45q-88 0 -168 33l16 41q49 -16 86 -17q59 0 91 26t32 73q0 29 -18.5 47t-44.5 18q-33 0 -54 -28l-59 10l82 182q-193 20 -342.5 86t-252.5 167t-156.5 236.5t-53.5 294.5z" />
<glyph unicode="&#xc8;" horiz-adv-x="1783" d="M258 0v1483h1382v-129h-1249v-504h869v-129h-869v-592h1307v-129h-1440zM750 1880h162l119 -285h-68z" />
<glyph unicode="&#xc9;" horiz-adv-x="1783" d="M258 0v1483h1382v-129h-1249v-504h869v-129h-869v-592h1307v-129h-1440zM893 1595l117 285h164l-213 -285h-68z" />
<glyph unicode="&#xca;" horiz-adv-x="1783" d="M258 0v1483h1382v-129h-1249v-504h869v-129h-869v-592h1307v-129h-1440zM625 1597l262 285h156l252 -285h-135l-199 215l-201 -215h-135z" />
<glyph unicode="&#xcb;" horiz-adv-x="1783" d="M258 0v1483h1382v-129h-1249v-504h869v-129h-869v-592h1307v-129h-1440zM695 1736q0 41 30.5 72t71.5 31t70.5 -30t29.5 -73q0 -41 -29.5 -70.5t-70.5 -29.5q-43 0 -72.5 29.5t-29.5 70.5zM1031 1736q0 43 29.5 73t70.5 30t71.5 -31t30.5 -72t-29.5 -70.5t-72.5 -29.5 q-41 0 -70.5 28.5t-29.5 71.5z" />
<glyph unicode="&#xcc;" horiz-adv-x="649" d="M113 1880h162l119 -285h-68zM258 0v1483h133v-1483h-133z" />
<glyph unicode="&#xcd;" horiz-adv-x="649" d="M256 1595l117 285h164l-213 -285h-68zM258 0v1483h133v-1483h-133z" />
<glyph unicode="&#xce;" horiz-adv-x="649" d="M-12 1597l262 285h156l252 -285h-135l-199 215l-201 -215h-135zM258 0v1483h133v-1483h-133z" />
<glyph unicode="&#xcf;" horiz-adv-x="649" d="M58 1736q0 41 30.5 72t71.5 31t70.5 -30t29.5 -73q0 -41 -29.5 -70.5t-70.5 -29.5q-43 0 -72.5 29.5t-29.5 70.5zM258 0v1483h133v-1483h-133zM394 1736q0 43 29.5 73t70.5 30t71.5 -31t30.5 -72t-29.5 -70.5t-72.5 -29.5q-41 0 -70.5 28.5t-29.5 71.5z" />
<glyph unicode="&#xd0;" horiz-adv-x="2097" d="M121 680v129h137v674h883q182 0 327.5 -53.5t247 -151.5t155.5 -238.5t54 -314.5q0 -154 -53 -286t-158 -234q-102 -100 -236.5 -152.5t-287.5 -52.5h-932v680h-137zM391 129h809q123 0 228.5 45t185.5 133q76 84 117 192.5t41 231.5q0 139 -44.5 254t-125 197 t-193.5 127t-248 45h-770v-545h752v-129h-752v-551z" />
<glyph unicode="&#xd1;" horiz-adv-x="2088" d="M258 0v1483h193l1247 -1354v1354h133v-1483h-189l-1251 1354v-1354h-133zM716 1675q51 66 92 98.5t86 32.5q35 0 69 -12.5t66.5 -26.5t65.5 -26.5t64 -12.5q41 0 64.5 20.5t49.5 63.5l70 -47q-80 -135 -182 -135q-37 0 -73 12t-68.5 25.5t-62.5 26t-54 12.5 q-68 0 -119 -82z" />
<glyph unicode="&#xd2;" horiz-adv-x="2131" d="M172 743q0 354 277 582q119 98 277.5 151.5t340.5 53.5q180 0 339 -53.5t277 -151.5q277 -228 277 -582q0 -358 -274 -583q-117 -96 -275 -149.5t-344 -53.5t-345 53t-276 150q-274 225 -274 583zM317 743q0 -147 53.5 -269t152 -209t236.5 -134t308 -47t308 48 t236.5 134t153 208t54.5 269q0 303 -242 496q-98 78 -230.5 122t-279.5 44t-279.5 -44t-230.5 -122q-240 -190 -240 -496zM852 1880h162l119 -285h-68z" />
<glyph unicode="&#xd3;" horiz-adv-x="2131" d="M172 743q0 354 277 582q119 98 277.5 151.5t340.5 53.5q180 0 339 -53.5t277 -151.5q277 -228 277 -582q0 -358 -274 -583q-117 -96 -275 -149.5t-344 -53.5t-345 53t-276 150q-274 225 -274 583zM317 743q0 -147 53.5 -269t152 -209t236.5 -134t308 -47t308 48 t236.5 134t153 208t54.5 269q0 303 -242 496q-98 78 -230.5 122t-279.5 44t-279.5 -44t-230.5 -122q-240 -190 -240 -496zM995 1595l117 285h164l-213 -285h-68z" />
<glyph unicode="&#xd4;" horiz-adv-x="2131" d="M172 743q0 354 277 582q119 98 277.5 151.5t340.5 53.5q180 0 339 -53.5t277 -151.5q277 -228 277 -582q0 -358 -274 -583q-117 -96 -275 -149.5t-344 -53.5t-345 53t-276 150q-274 225 -274 583zM317 743q0 -147 53.5 -269t152 -209t236.5 -134t308 -47t308 48 t236.5 134t153 208t54.5 269q0 303 -242 496q-98 78 -230.5 122t-279.5 44t-279.5 -44t-230.5 -122q-240 -190 -240 -496zM727 1597l262 285h156l252 -285h-135l-199 215l-201 -215h-135z" />
<glyph unicode="&#xd5;" horiz-adv-x="2131" d="M172 743q0 354 277 582q119 98 277.5 151.5t340.5 53.5q180 0 339 -53.5t277 -151.5q277 -228 277 -582q0 -358 -274 -583q-117 -96 -275 -149.5t-344 -53.5t-345 53t-276 150q-274 225 -274 583zM317 743q0 -147 53.5 -269t152 -209t236.5 -134t308 -47t308 48 t236.5 134t153 208t54.5 269q0 303 -242 496q-98 78 -230.5 122t-279.5 44t-279.5 -44t-230.5 -122q-240 -190 -240 -496zM739 1675q51 66 92 98.5t86 32.5q35 0 69 -12.5t66.5 -26.5t65.5 -26.5t64 -12.5q41 0 64.5 20.5t49.5 63.5l70 -47q-80 -135 -182 -135q-37 0 -73 12 t-68.5 25.5t-62.5 26t-54 12.5q-68 0 -119 -82z" />
<glyph unicode="&#xd6;" horiz-adv-x="2131" d="M172 743q0 354 277 582q119 98 277.5 151.5t340.5 53.5q180 0 339 -53.5t277 -151.5q277 -228 277 -582q0 -358 -274 -583q-117 -96 -275 -149.5t-344 -53.5t-345 53t-276 150q-274 225 -274 583zM317 743q0 -147 53.5 -269t152 -209t236.5 -134t308 -47t308 48 t236.5 134t153 208t54.5 269q0 303 -242 496q-98 78 -230.5 122t-279.5 44t-279.5 -44t-230.5 -122q-240 -190 -240 -496zM797 1736q0 41 30.5 72t71.5 31t70.5 -30t29.5 -73q0 -41 -29.5 -70.5t-70.5 -29.5q-43 0 -72.5 29.5t-29.5 70.5zM1133 1736q0 43 29.5 73t70.5 30 t71.5 -31t30.5 -72t-29.5 -70.5t-72.5 -29.5q-41 0 -70.5 28.5t-29.5 71.5z" />
<glyph unicode="&#xd7;" horiz-adv-x="1705" d="M305 129l481 481l-481 482l70 69l481 -481l481 481l70 -69l-481 -482l481 -481l-70 -70l-481 482l-481 -482z" />
<glyph unicode="&#xd8;" horiz-adv-x="2131" d="M172 743q0 354 277 582q117 98 276.5 151.5t341.5 53.5q121 0 233.5 -25.5t227.5 -79.5l125 154h147l-172 -211q170 -131 251 -281.5t81 -343.5q0 -358 -274 -583q-117 -96 -276 -149.5t-343 -53.5q-133 0 -254 29.5t-244 91.5l-137 -168h-147l188 229 q-156 129 -228.5 273.5t-72.5 330.5zM317 743q0 -156 56.5 -276.5t181.5 -224.5l887 1079q-96 41 -187.5 62.5t-187.5 21.5q-147 0 -279.5 -44t-230.5 -122q-240 -190 -240 -496zM653 180q195 -96 414 -96q170 0 308 48t236.5 134t153 208t54.5 269q0 160 -68 286t-209 235z " />
<glyph unicode="&#xd9;" horiz-adv-x="2080" d="M258 463v1020h133v-969q0 -428 651 -428q647 0 648 428v969h133v-1020q0 -111 -54.5 -204t-155 -159.5t-245.5 -104.5t-326 -38q-182 0 -326.5 38t-246.5 105.5t-156.5 159.5t-54.5 203zM825 1880h162l119 -285h-68z" />
<glyph unicode="&#xda;" horiz-adv-x="2080" d="M258 463v1020h133v-969q0 -428 651 -428q647 0 648 428v969h133v-1020q0 -111 -54.5 -204t-155 -159.5t-245.5 -104.5t-326 -38q-182 0 -326.5 38t-246.5 105.5t-156.5 159.5t-54.5 203zM968 1595l117 285h164l-213 -285h-68z" />
<glyph unicode="&#xdb;" horiz-adv-x="2080" d="M258 463v1020h133v-969q0 -428 651 -428q647 0 648 428v969h133v-1020q0 -111 -54.5 -204t-155 -159.5t-245.5 -104.5t-326 -38q-182 0 -326.5 38t-246.5 105.5t-156.5 159.5t-54.5 203zM700 1597l262 285h156l252 -285h-135l-199 215l-201 -215h-135z" />
<glyph unicode="&#xdc;" horiz-adv-x="2080" d="M258 463v1020h133v-969q0 -428 651 -428q647 0 648 428v969h133v-1020q0 -111 -54.5 -204t-155 -159.5t-245.5 -104.5t-326 -38q-182 0 -326.5 38t-246.5 105.5t-156.5 159.5t-54.5 203zM770 1736q0 41 30.5 72t71.5 31t70.5 -30t29.5 -73q0 -41 -29.5 -70.5t-70.5 -29.5 q-43 0 -72.5 29.5t-29.5 70.5zM1106 1736q0 43 29.5 73t70.5 30t71.5 -31t30.5 -72t-29.5 -70.5t-72.5 -29.5q-41 0 -70.5 28.5t-29.5 71.5z" />
<glyph unicode="&#xdd;" horiz-adv-x="1624" d="M10 1483h162l639 -754l641 754h162l-733 -887v-596h-133v596zM741 1595l117 285h164l-213 -285h-68z" />
<glyph unicode="&#xde;" horiz-adv-x="1869" d="M258 0v1483h133v-223h985q102 0 185.5 -31t141.5 -89.5t89 -140t31 -182.5q0 -98 -33 -178t-95.5 -136.5t-151.5 -87t-202 -30.5h-950v-385h-133zM391 514h975q147 0 228 81t81 228q0 307 -358 307h-926v-616z" />
<glyph unicode="&#xdf;" horiz-adv-x="3192" d="M137 164l76 108q147 -92 301 -134t334 -42q244 0 374 74t130 197q0 70 -32 113.5t-95.5 70.5t-158.5 39t-224 18q-170 6 -296 20.5t-209 48.5t-125 93t-42 156q0 174 158.5 271t459.5 97q375 0 619 -149l-78 -101q-127 66 -259 95.5t-284 29.5q-229 0 -345.5 -56 t-116.5 -163q0 -61 30.5 -101t94 -63.5t160 -35t225.5 -15.5q170 -6 296.5 -24.5t209.5 -57.5t124 -104.5t41 -169.5q0 -193 -168 -300.5t-491 -107.5q-436 0 -709 193zM1688 164l75 108q147 -94 301 -135t334 -41q244 0 374 74t130 197q0 70 -31.5 113.5t-95 70.5t-159 39 t-224.5 18q-170 6 -296 20.5t-209 48.5t-125 93t-42 156q0 174 159 271t460 97q375 0 618 -149l-78 -101q-127 66 -259 95.5t-283 29.5q-229 0 -346 -56t-117 -163q0 -61 30.5 -101t94 -63.5t160 -35t225.5 -15.5q170 -6 297 -23.5t210 -57.5t124 -105.5t41 -169.5 q0 -193 -168 -300.5t-492 -107.5q-438 0 -708 193z" />
<glyph unicode="&#xe0;" horiz-adv-x="1552" d="M10 0l678 1260h178l676 -1260h-156l-172 322h-874l-176 -322h-154zM408 451h739l-367 682h-4zM561 1653h162l119 -285h-68z" />
<glyph unicode="&#xe1;" horiz-adv-x="1552" d="M10 0l678 1260h178l676 -1260h-156l-172 322h-874l-176 -322h-154zM408 451h739l-367 682h-4zM704 1368l117 285h164l-213 -285h-68z" />
<glyph unicode="&#xe2;" horiz-adv-x="1552" d="M10 0l678 1260h178l676 -1260h-156l-172 322h-874l-176 -322h-154zM408 451h739l-367 682h-4zM436 1370l262 285h156l252 -285h-135l-199 215l-201 -215h-135z" />
<glyph unicode="&#xe3;" horiz-adv-x="1552" d="M10 0l678 1260h178l676 -1260h-156l-172 322h-874l-176 -322h-154zM408 451h739l-367 682h-4zM448 1448q51 66 92 98.5t86 32.5q35 0 69 -12.5t66.5 -26.5t65.5 -26.5t64 -12.5q41 0 64.5 20.5t49.5 63.5l70 -47q-80 -135 -182 -135q-37 0 -73 12t-68.5 25.5t-62.5 26 t-54 12.5q-68 0 -119 -82z" />
<glyph unicode="&#xe4;" horiz-adv-x="1552" d="M10 0l678 1260h178l676 -1260h-156l-172 322h-874l-176 -322h-154zM408 451h739l-367 682h-4zM506 1509q0 41 30.5 72t71.5 31t70.5 -30t29.5 -73q0 -41 -29.5 -70.5t-70.5 -29.5q-43 0 -72.5 29.5t-29.5 70.5zM842 1509q0 43 29.5 73t70.5 30t71.5 -31t30.5 -72 t-29.5 -70.5t-72.5 -29.5q-41 0 -70.5 28.5t-29.5 71.5z" />
<glyph unicode="&#xe5;" horiz-adv-x="1552" d="M10 0l678 1260h178l676 -1260h-156l-172 322h-874l-176 -322h-154zM408 451h739l-367 682h-4zM578 1524q0 33 15 62.5t42 51t64.5 35t80.5 13.5t81 -13.5t64.5 -35t42 -51t15.5 -62.5t-15.5 -62.5t-42 -51t-64.5 -35t-81 -13.5t-80.5 13.5t-64.5 35t-42 51t-15 62.5z M657 1524q0 -41 33 -67.5t90 -26.5t91 27.5t34 66.5q0 41 -33.5 68.5t-91.5 27.5q-55 0 -89 -27.5t-34 -68.5z" />
<glyph unicode="&#xe6;" horiz-adv-x="2291" d="M10 0l873 1260h1278v-130h-1063v-399h739v-129h-739v-473h1112v-129h-1245v322h-580l-225 -322h-150zM473 451h492v679h-21z" />
<glyph unicode="&#xe7;" horiz-adv-x="1714" d="M143 635q0 301 236 491q102 82 238.5 128t293.5 46q215 0 384 -74.5t286 -215.5l-121 -47q-90 102 -226 157.5t-323 55.5q-141 0 -255.5 -42t-197.5 -116t-128 -175.5t-45 -221.5q0 -113 45 -209.5t128 -167t198.5 -111.5t254.5 -41q186 0 320.5 50.5t228.5 158.5 l113 -70q-111 -135 -267.5 -198.5t-367.5 -65.5l-31 -71h13q78 0 119.5 -40t41.5 -112q0 -78 -53 -123t-147 -45q-88 0 -168 33l16 41q49 -16 86 -17q59 0 91 26t32 73q0 27 -19.5 46t-44.5 19q-33 0 -53 -28l-59 10l84 190q-168 16 -298 70.5t-220 140.5t-137.5 201 t-47.5 254z" />
<glyph unicode="&#xe8;" horiz-adv-x="1556" d="M229 0v1260h1196v-130h-1063v-399h740v-129h-740v-473h1113v-129h-1246zM604 1653h162l119 -285h-68z" />
<glyph unicode="&#xe9;" horiz-adv-x="1556" d="M229 0v1260h1196v-130h-1063v-399h740v-129h-740v-473h1113v-129h-1246zM747 1368l117 285h164l-213 -285h-68z" />
<glyph unicode="&#xea;" horiz-adv-x="1556" d="M229 0v1260h1196v-130h-1063v-399h740v-129h-740v-473h1113v-129h-1246zM479 1370l262 285h156l252 -285h-135l-199 215l-201 -215h-135z" />
<glyph unicode="&#xeb;" horiz-adv-x="1556" d="M229 0v1260h1196v-130h-1063v-399h740v-129h-740v-473h1113v-129h-1246zM549 1509q0 41 30.5 72t71.5 31t70.5 -30t29.5 -73q0 -41 -29.5 -70.5t-70.5 -29.5q-43 0 -72.5 29.5t-29.5 70.5zM885 1509q0 43 29.5 73t70.5 30t71.5 -31t30.5 -72t-29.5 -70.5t-72.5 -29.5 q-41 0 -70.5 28.5t-29.5 71.5z" />
<glyph unicode="&#xec;" horiz-adv-x="552" d="M84 1653h162l119 -285h-68z" />
<glyph unicode="&#xed;" horiz-adv-x="552" d="M227 1368l117 285h164l-213 -285h-68z" />
<glyph unicode="&#xee;" horiz-adv-x="552" d="M-41 1370l262 285h156l252 -285h-135l-199 215l-201 -215h-135z" />
<glyph unicode="&#xef;" horiz-adv-x="552" d="M29 1509q0 41 30.5 72t71.5 31t70.5 -30t29.5 -73q0 -41 -29.5 -70.5t-70.5 -29.5q-43 0 -72.5 29.5t-29.5 70.5zM365 1509q0 43 29.5 73t70.5 30t71.5 -31t30.5 -72t-29.5 -70.5t-72.5 -29.5q-41 0 -70.5 28.5t-29.5 71.5z" />
<glyph unicode="&#xf0;" horiz-adv-x="1820" d="M111 567v129h116v564h760q158 0 284 -45.5t213 -128t134 -202.5t47 -268q0 -131 -46 -244.5t-138 -199.5q-88 -86 -203 -129t-248 -43h-803v567h-116zM360 129h678q123 0 229.5 56.5t166.5 152.5q39 63 59 135t20 150q0 113 -36.5 207t-103 160.5t-160 103t-207.5 36.5 h-646v-434h639v-129h-639v-438z" />
<glyph unicode="&#xf1;" horiz-adv-x="1816" d="M229 0v1260h168l1057 -1133v1133h133v-1260h-168l-1057 1133v-1133h-133zM581 1448q51 66 92 98.5t86 32.5q35 0 69 -12.5t66.5 -26.5t65.5 -26.5t64 -12.5q41 0 64.5 20.5t49.5 63.5l70 -47q-80 -135 -182 -135q-37 0 -73 12t-68.5 25.5t-62.5 26t-54 12.5 q-68 0 -119 -82z" />
<glyph unicode="&#xf2;" horiz-adv-x="1828" d="M143 633q0 303 238 493q102 84 239.5 130.5t292.5 46.5q156 0 293 -46.5t240 -130.5q240 -192 240 -493q0 -305 -236 -498q-102 -82 -239.5 -127t-297.5 -45t-296 46t-238 128q-236 193 -236 496zM287 616q0 -113 45 -209t127 -165.5t197.5 -109.5t256.5 -40t258 40 t199 110.5t127 167t45 211.5q0 119 -46 221t-129 176t-198.5 116t-255.5 42q-139 0 -254.5 -42t-198.5 -117t-128 -177.5t-45 -223.5zM700 1653h162l119 -285h-68z" />
<glyph unicode="&#xf3;" horiz-adv-x="1828" d="M143 633q0 303 238 493q102 84 239.5 130.5t292.5 46.5q156 0 293 -46.5t240 -130.5q240 -192 240 -493q0 -305 -236 -498q-102 -82 -239.5 -127t-297.5 -45t-296 46t-238 128q-236 193 -236 496zM287 616q0 -113 45 -209t127 -165.5t197.5 -109.5t256.5 -40t258 40 t199 110.5t127 167t45 211.5q0 119 -46 221t-129 176t-198.5 116t-255.5 42q-139 0 -254.5 -42t-198.5 -117t-128 -177.5t-45 -223.5zM843 1368l117 285h164l-213 -285h-68z" />
<glyph unicode="&#xf4;" horiz-adv-x="1828" d="M143 633q0 303 238 493q102 84 239.5 130.5t292.5 46.5q156 0 293 -46.5t240 -130.5q240 -192 240 -493q0 -305 -236 -498q-102 -82 -239.5 -127t-297.5 -45t-296 46t-238 128q-236 193 -236 496zM287 616q0 -113 45 -209t127 -165.5t197.5 -109.5t256.5 -40t258 40 t199 110.5t127 167t45 211.5q0 119 -46 221t-129 176t-198.5 116t-255.5 42q-139 0 -254.5 -42t-198.5 -117t-128 -177.5t-45 -223.5zM575 1370l262 285h156l252 -285h-135l-199 215l-201 -215h-135z" />
<glyph unicode="&#xf5;" horiz-adv-x="1828" d="M143 633q0 303 238 493q102 84 239.5 130.5t292.5 46.5q156 0 293 -46.5t240 -130.5q240 -192 240 -493q0 -305 -236 -498q-102 -82 -239.5 -127t-297.5 -45t-296 46t-238 128q-236 193 -236 496zM287 616q0 -113 45 -209t127 -165.5t197.5 -109.5t256.5 -40t258 40 t199 110.5t127 167t45 211.5q0 119 -46 221t-129 176t-198.5 116t-255.5 42q-139 0 -254.5 -42t-198.5 -117t-128 -177.5t-45 -223.5zM587 1448q51 66 92 98.5t86 32.5q35 0 69 -12.5t66.5 -26.5t65.5 -26.5t64 -12.5q41 0 64.5 20.5t49.5 63.5l70 -47q-80 -135 -182 -135 q-37 0 -73 12t-68.5 25.5t-62.5 26t-54 12.5q-68 0 -119 -82z" />
<glyph unicode="&#xf6;" horiz-adv-x="1828" d="M143 633q0 303 238 493q102 84 239.5 130.5t292.5 46.5q156 0 293 -46.5t240 -130.5q240 -192 240 -493q0 -305 -236 -498q-102 -82 -239.5 -127t-297.5 -45t-296 46t-238 128q-236 193 -236 496zM287 616q0 -113 45 -209t127 -165.5t197.5 -109.5t256.5 -40t258 40 t199 110.5t127 167t45 211.5q0 119 -46 221t-129 176t-198.5 116t-255.5 42q-139 0 -254.5 -42t-198.5 -117t-128 -177.5t-45 -223.5zM645 1509q0 41 30.5 72t71.5 31t70.5 -30t29.5 -73q0 -41 -29.5 -70.5t-70.5 -29.5q-43 0 -72.5 29.5t-29.5 70.5zM981 1509q0 43 29.5 73 t70.5 30t71.5 -31t30.5 -72t-29.5 -70.5t-72.5 -29.5q-41 0 -70.5 28.5t-29.5 71.5z" />
<glyph unicode="&#xf7;" horiz-adv-x="1705" d="M254 561v98h1198v-98h-1198zM748 258q0 45 31.5 76t74.5 31q45 0 76 -31t31 -76q0 -43 -30 -74.5t-77 -31.5q-45 0 -75.5 30.5t-30.5 75.5zM748 963q0 45 31.5 76.5t74.5 31.5q45 0 76 -31.5t31 -76.5q0 -43 -30 -75t-77 -32t-76.5 31t-29.5 76z" />
<glyph unicode="&#xf8;" horiz-adv-x="1828" d="M143 633q0 303 238 493q102 84 239.5 130.5t292.5 46.5q195 0 400 -91l106 134h154l-158 -195q139 -111 205 -235.5t66 -282.5q0 -305 -236 -498q-102 -82 -239.5 -127t-297.5 -45q-207 0 -405 92l-123 -147h-158l176 211q-135 109 -197.5 231.5t-62.5 282.5zM287 612 q0 -115 48 -210t150 -183l742 889q-158 68 -314 68q-141 0 -255.5 -42t-197.5 -117t-128 -178.5t-45 -226.5zM592 158q152 -66 321 -66q143 0 259 40t198 110.5t127 170t45 220.5q0 127 -51 227.5t-160 188.5z" />
<glyph unicode="&#xf9;" horiz-adv-x="1779" d="M215 412v848h133v-805q0 -348 545 -349q539 0 539 349v805h133v-848q0 -94 -46 -174t-133.5 -137.5t-212 -89t-280.5 -31.5q-158 0 -283 32.5t-213 90t-135 136t-47 173.5zM676 1653h162l119 -285h-68z" />
<glyph unicode="&#xfa;" horiz-adv-x="1779" d="M215 412v848h133v-805q0 -348 545 -349q539 0 539 349v805h133v-848q0 -94 -46 -174t-133.5 -137.5t-212 -89t-280.5 -31.5q-158 0 -283 32.5t-213 90t-135 136t-47 173.5zM819 1368l117 285h164l-213 -285h-68z" />
<glyph unicode="&#xfb;" horiz-adv-x="1779" d="M215 412v848h133v-805q0 -348 545 -349q539 0 539 349v805h133v-848q0 -94 -46 -174t-133.5 -137.5t-212 -89t-280.5 -31.5q-158 0 -283 32.5t-213 90t-135 136t-47 173.5zM551 1370l262 285h156l252 -285h-135l-199 215l-201 -215h-135z" />
<glyph unicode="&#xfc;" horiz-adv-x="1779" d="M215 412v848h133v-805q0 -348 545 -349q539 0 539 349v805h133v-848q0 -94 -46 -174t-133.5 -137.5t-212 -89t-280.5 -31.5q-158 0 -283 32.5t-213 90t-135 136t-47 173.5zM621 1509q0 41 30.5 72t71.5 31t70.5 -30t29.5 -73q0 -41 -29.5 -70.5t-70.5 -29.5 q-43 0 -72.5 29.5t-29.5 70.5zM957 1509q0 43 29.5 73t70.5 30t71.5 -31t30.5 -72t-29.5 -70.5t-72.5 -29.5q-41 0 -70.5 28.5t-29.5 71.5z" />
<glyph unicode="&#xfd;" horiz-adv-x="1427" d="M10 1260h164l539 -625l538 625h166l-635 -754v-506h-133v506zM643 1368l117 285h164l-213 -285h-68z" />
<glyph unicode="&#xfe;" horiz-adv-x="1619" d="M229 0v1260h133v-130h828q180 0 285.5 -102t105.5 -276q0 -170 -112.5 -271.5t-307.5 -101.5h-799v-379h-133zM362 508h820q121 0 186.5 64.5t65.5 183.5q0 246 -293 245h-779v-493z" />
<glyph unicode="&#xff;" horiz-adv-x="1427" d="M10 1260h164l539 -625l538 625h166l-635 -754v-506h-133v506zM445 1509q0 41 30.5 72t71.5 31t70.5 -30t29.5 -73q0 -41 -29.5 -70.5t-70.5 -29.5q-43 0 -72.5 29.5t-29.5 70.5zM781 1509q0 43 29.5 73t70.5 30t71.5 -31t30.5 -72t-29.5 -70.5t-72.5 -29.5 q-41 0 -70.5 28.5t-29.5 71.5z" />
<glyph unicode="&#x152;" horiz-adv-x="2992" d="M172 739q0 340 268 553q115 92 267.5 141.5t332.5 49.5h1809v-129h-1250v-504h869v-129h-869v-592h1307v-129h-1859q-184 0 -339 48t-268 136q-268 209 -268 555zM315 739q0 -139 50.5 -251.5t143.5 -192.5t227 -123t304 -43h166q131 0 195.5 27.5t64.5 93.5v934 q0 92 -69.5 131t-214.5 39h-142q-164 0 -297 -45t-228 -127t-147.5 -195t-52.5 -248z" />
<glyph unicode="&#x153;" horiz-adv-x="2570" d="M143 629q0 289 232 471q98 76 230 118t286 42h1548v-130h-1061v-399h738v-129h-738v-473h1110v-129h-1591q-170 0 -309 46t-237.5 130t-153 198.5t-54.5 254.5zM287 629q0 -115 42 -207t119.5 -156.5t189.5 -100.5t253 -36h156q199 6 198 90v778q0 72 -57.5 102.5 t-175.5 30.5h-121q-137 0 -249 -36.5t-190.5 -103t-121.5 -159t-43 -202.5z" />
<glyph unicode="&#x178;" horiz-adv-x="1624" d="M10 1483h162l639 -754l641 754h162l-733 -887v-596h-133v596zM543 1736q0 41 30.5 72t71.5 31t70.5 -30t29.5 -73q0 -41 -29.5 -70.5t-70.5 -29.5q-43 0 -72.5 29.5t-29.5 70.5zM879 1736q0 43 29.5 73t70.5 30t71.5 -31t30.5 -72t-29.5 -70.5t-72.5 -29.5 q-41 0 -70.5 28.5t-29.5 71.5z" />
<glyph unicode="&#x2c6;" d="M172 1370l262 285h156l252 -285h-135l-199 215l-201 -215h-135z" />
<glyph unicode="&#x2dc;" d="M184 1448q51 66 92 98.5t86 32.5q35 0 69 -12.5t66.5 -26.5t65.5 -26.5t64 -12.5q41 0 64.5 20.5t49.5 63.5l70 -47q-80 -135 -182 -135q-37 0 -73 12t-68.5 25.5t-62.5 26t-54 12.5q-68 0 -119 -82z" />
<glyph unicode="&#x2000;" horiz-adv-x="949" />
<glyph unicode="&#x2001;" horiz-adv-x="1898" />
<glyph unicode="&#x2002;" horiz-adv-x="949" />
<glyph unicode="&#x2003;" horiz-adv-x="1898" />
<glyph unicode="&#x2004;" horiz-adv-x="632" />
<glyph unicode="&#x2005;" horiz-adv-x="474" />
<glyph unicode="&#x2006;" horiz-adv-x="316" />
<glyph unicode="&#x2007;" horiz-adv-x="316" />
<glyph unicode="&#x2008;" horiz-adv-x="237" />
<glyph unicode="&#x2009;" horiz-adv-x="379" />
<glyph unicode="&#x200a;" horiz-adv-x="105" />
<glyph unicode="&#x2010;" horiz-adv-x="894" d="M123 598v129h649v-129h-649z" />
<glyph unicode="&#x2011;" horiz-adv-x="894" d="M123 598v129h649v-129h-649z" />
<glyph unicode="&#x2012;" horiz-adv-x="894" d="M123 598v129h649v-129h-649z" />
<glyph unicode="&#x2013;" horiz-adv-x="1476" d="M123 598v129h1231v-129h-1231z" />
<glyph unicode="&#x2014;" horiz-adv-x="1765" d="M123 598v129h1519v-129h-1519z" />
<glyph unicode="&#x2018;" horiz-adv-x="471" d="M113 1124v191q0 90 47 129t151 39h33v-62q-127 -10 -127 -104v-64h141v-129h-245z" />
<glyph unicode="&#x2019;" horiz-adv-x="471" d="M113 1354v129h245v-191q0 -90 -47 -129t-151 -39h-33v62q127 10 127 104v64h-141z" />
<glyph unicode="&#x201a;" horiz-adv-x="563" d="M152 0v129h245v-190q0 -90 -47 -129t-151 -39h-33v61q127 10 127 105v63h-141z" />
<glyph unicode="&#x201c;" horiz-adv-x="833" d="M113 1124v191q0 90 47 129t151 39h33v-62q-127 -10 -127 -104v-64h141v-129h-245zM475 1124v191q0 90 47 129t152 39h33v-62q-127 -10 -127 -104v-64h141v-129h-246z" />
<glyph unicode="&#x201d;" horiz-adv-x="833" d="M102 1354v129h246v-191q0 -90 -47 -129t-151 -39h-33v62q127 10 127 104v64h-142zM465 1354v129h246v-191q0 -90 -47.5 -129t-151.5 -39h-33v62q127 10 127 104v64h-141z" />
<glyph unicode="&#x201e;" horiz-adv-x="905" d="M150 0v129h245v-190q0 -90 -47 -129t-151 -39h-33v61q127 10 127 105v63h-141zM512 0v129h246v-190q0 -90 -47 -129t-152 -39h-33v61q127 10 127 105v63h-141z" />
<glyph unicode="&#x2022;" horiz-adv-x="1124" d="M193 731q0 143 112 250q109 102 258 102q150 0 258 -102q113 -109 113 -250q0 -143 -113 -252q-106 -100 -258 -100q-74 0 -140.5 25.5t-117.5 74.5q-55 53 -83.5 118t-28.5 134z" />
<glyph unicode="&#x2026;" horiz-adv-x="1519" d="M109 872q0 88 38.5 162t112.5 128.5t178.5 84t235.5 29.5q158 0 284.5 -47t216 -133t137.5 -208t48 -274q0 -135 -49 -251.5t-146 -206.5q-92 -86 -211.5 -132.5t-257.5 -46.5q-172 0 -302 52.5t-216 152.5l98 82q172 -160 410 -160q119 0 223 46q145 59 229.5 187 t84.5 288q-1 66 -15 123q-109 -127 -257 -195t-314 -68q-117 0 -214 30t-167 81t-108.5 121.5t-38.5 154.5zM252 881q0 -59 27.5 -108.5t80 -84.5t125 -55.5t164.5 -20.5q166 0 299 72t217 207q-45 72 -96 121t-112.5 79.5t-135 45t-162.5 14.5q-199 0 -303 -70.5 t-104 -199.5z" />
<glyph unicode="&#x202f;" horiz-adv-x="379" />
<glyph unicode="&#x2039;" horiz-adv-x="673" d="M100 657l297 334h152l-283 -334l279 -331h-156z" />
<glyph unicode="&#x203a;" horiz-adv-x="673" d="M121 991h151l297 -334l-288 -331h-156l278 331z" />
<glyph unicode="&#x205f;" horiz-adv-x="474" />
<glyph unicode="&#x2122;" horiz-adv-x="837" d="M20 1395v67h293v-67h-104v-273h-84v273h-105zM381 1122v340h119l80 -205l73 205h117v-340h-80v256l-94 -256h-37l-96 256v-256h-82z" />
<glyph unicode="&#x25fc;" horiz-adv-x="1259" d="M0 0v1260h1260v-1260h-1260z" />
</font>
</defs>
</svg>
